<svg xmlns="http://www.w3.org/2000/svg" xml:space="preserve" viewBox="0 0 652 652"><path fill="#020201" d="M364 653H1V1h652v652zm-96.647-376.752c-.193-.391-.386-.783-.34-1.97-6.01-21.55-13.23-42.61-25.177-61.732-3.53-5.651-5.01-5.529-8.223.464-.708 1.32-1.497 2.636-1.947 4.05-4.734 14.883-9.824 29.67-13.983 44.715-4.442 16.07-8.487 32.148-17.7 46.418-16.282 25.22-46.548 27.747-66.288 13.66-12.77-9.11-22.86-20.805-31.79-33.542-7.248-10.337-14.253-20.845-21.51-31.926L64.648 232.49l-1.913.455c-.888 7.33-2.146 14.638-2.597 21.995-1.644 26.766 1.358 53.127 6.636 79.381 3.734 18.572 5.865 37.461 9.404 56.077 2.586 13.603-.593 24.569-11.663 33.086-2.4 1.847-2.033 3.877-.112 5.951 3.386 3.656 6.702 7.377 10.367 11.586.75.654 1.498 1.308 2.512 2.564 5.998 5.139 11.996 10.278 18.028 15.542 0 0 .13 0 .397.671 7.187 5.012 14.374 10.024 21.703 15.292 0 0 .288.059.617.673 9.543 5.433 18.834 11.379 28.672 16.211 40.89 20.088 84.22 32.017 130.177 38.033 10.316 1.014 20.617 2.683 30.95 2.904 20.37.436 40.757.068 62.02.208 7.06-.798 14.122-1.597 21.841-2.324.413-.14.826-.28 2.067-.2 4.751-.622 9.503-1.245 15.075-1.756.787-.201 1.574-.403 3.027-.501 1.306-.325 2.611-.65 4.298-.71.336.051.617-.049 1.382-.183.16-.092.318-.184 1.007-.194.157-.086.313-.173.684-.063.335.043.57-.075 1.576-.284.829-.232 1.657-.464 3.134-.536 1.288-.321 2.577-.643 4.414-.782.548-.153 1.096-.305 2.186-.36.148-.11.297-.218 1.28-.303.792-.222 1.584-.443 2.829-.506.436-.168.873-.336 2.103-.447.738-.24 1.476-.479 2.944-.732 2.408-.56 4.816-1.12 7.996-1.802 24.048-5.263 47.513-12.464 69.81-22.897 13.605-6.366 26.633-13.964 40.633-21.11 9.696-7.063 19.391-14.125 29.723-21.428 5.503-5.225 11.006-10.45 17.093-15.985 5.367-6.34 11.096-12.41 16.04-19.062 32.885-44.246 35.656-96.5 7.334-143.636-18.835-31.347-46.21-53.752-77.463-71.834-.768-.444-1.856-.336-3.376-.857-.976-.555-1.952-1.11-3.176-2.24-1.138-.892-2.148-2.084-3.433-2.63-18.92-8.044-37.691-16.492-56.899-23.788-10.604-4.028-21.956-6.088-33.734-9.194-3.541-.598-7.082-1.196-11.177-2.134-1.182-.523-2.316-1.283-3.553-1.535-24.317-4.948-48.884-8.27-73.673-8.906-28.602-.736-57.23-.514-85.847-.696-1.66-.01-3.334-.003-4.968.23-.223.031-.252 1.428-.249 2.797 13.417 13.29 23.088 29.114 30.835 46.164 16.424 36.144 25.61 74.428 32.958 113.218 1.944 10.26 3.266 20.637 4.705 31.718.125.757.25 1.514.05 3.094.128 2.786.257 5.572.156 8.894.018.578.037 1.156-.379 2.319-.466 2.113-.874 4.24-1.407 6.336-2.703 10.626-11.537 17.176-22.406 16.652-13.2-.637-27.404-12.728-30.109-26.027-2.72-13.371-4.837-26.867-7.68-40.21-2.837-13.309-6.248-26.496-9.27-40.324-.288-.485-.576-.97-.874-2.116m-69.841-122.326a22 22 0 0 1-3.307-.412c-4.796.091-9.593.183-14.93.122-.367.05-.735.101-1.883-.11-21.75-.024-43.501-.08-65.251-.056-8.454.01-16.907.197-25.884.142-.357.056-.713.111-1.644-.073-1.22.088-2.441.177-4.356.112-.705.038-1.411.076-2.779-.134-1.608.094-3.216.188-5.5.102l-3.845.814c2.385.896 3.526 1.324 4.898 2.373 19.532 12.882 33.824 30.669 46.935 49.659 12.183 17.646 24.649 35.098 37.178 52.5 3.883 5.392 5.716 5.157 8.049-1.292 3.216-8.89 6.208-17.916 8.447-27.091 3.151-12.915 5.284-26.076 8.297-39.029 2.948-12.67 8.226-24.459 15.743-36.174.167-.272.334-.544.69-.603l.143-.324s-.306.01-1.001-.526"/><path fill="#feee03" d="M117.698 475.148s-.288-.059-.36-.492c-.39-1.157-.707-1.88-1.189-2.929-1.184-.866-2.203-1.407-3.399-2.08-.578-.297-.98-.464-1.528-.918-.599-.727-1.052-1.167-1.603-1.589-.098.018-.274-.075-.525-.307-.663-.42-1.076-.607-1.67-.895-.522-.343-.862-.585-1.333-1.176-2.115-1.482-4.099-2.615-6.09-3.75-.01-.002-.016-.018-.11-.243-.292-.504-.559-.679-.895-.756-.002-.007-.015-.01-.183-.27-.542-.414-.916-.569-1.64-.754-.81.025-1.272.08-1.733.136 0 0-.13.001-.193-.378-.79-1.366-1.518-2.353-2.343-3.676-.38-.71-.664-1.08-1.231-1.56a38 38 0 0 1-3.882-3.43c-.47-.524-.809-.762-1.443-1.062-1.016-.953-1.737-1.844-2.558-2.978-.355-.475-.608-.707-.848-.969.014-.029-.043.001-.192-.212-.447-.386-.745-.56-1.174-.707-.13.027-.392-.03-.504-.371-2.13-2.253-4.146-4.164-6.347-6.268-1.03-.837-1.875-1.483-2.756-2.486-.686-.914-1.338-1.47-1.977-2.03.013-.002.006.023-.007-.338-1.046-1.525-2.08-2.69-3.175-4.09-.123-.562-.136-.888-.015-1.635.135-1.266.185-2.113.392-3.216 1.033-1.068 1.908-1.88 3.156-2.706 1.827-1.993 3.282-3.971 4.858-6.143.296-.444.503-.665.96-.973.494-.32.686-.585.81-.911.012-.004 0-.026.236-.213.409-.752.582-1.317.785-2.196.087-.733.144-1.15.39-1.772.36-.727.534-1.252.94-2.12-.35-11.261-.908-22.18-1.582-33.091-.036-.584-1.05-1.107-1.656-1.963-.089-.712-.13-1.12.081-1.822-.712-7.426-1.3-14.634-2.717-21.676-4.433-22.025-9.974-43.868-9.553-66.598.028-1.518-1.2-3.06-1.868-4.977-.05-1.416-.078-2.446.16-3.803.405-5.807.543-11.288.705-17.232.876-5.598-1.623-11.298 2.754-16.71 4.404 6.405 8.461 12.306 12.653 18.516 3.435 5.468 6.742 10.62 10.035 15.783 13.435 21.069 27.887 41.215 49.846 55.027 1.11.433 1.976.624 2.85.827.008.012.02-.017.052.264.712.397 1.392.515 2.403.65 1.367.365 2.403.711 3.578 1.417 3.416.798 6.695 1.236 10.306 1.705.777.076 1.22.12 1.981.37 2.777-.31 5.236-.827 8.005-1.391.725-.085 1.14-.122 1.824.102 2.788-.502 5.31-1.265 8.185-2.085 6.046-3.835 11.92-7.373 17.346-11.5 2.51-1.91 4.145-4.971 6.536-7.558 1.474-2.028 2.587-4.01 3.713-5.963.013.026-.026-.026.326-.096 1.095-1.793 1.837-3.515 2.648-5.58 4.356-13.242 8.852-26.076 12.871-39.056 4.028-13.006 7.413-26.21 11.456-39.21 1.022-3.289 3.476-6.132 5.272-9.18q.904.143 1.807.285c4.474 9.336 9.237 18.547 13.334 28.045 3.494 8.1 6.221 16.531 9.293 25.2.639 1.827 1.271 3.269 1.956 4.992.083.662.113 1.042.117 1.862.941 3.23 1.908 6.02 2.912 9.111.051.704.065 1.107.17 1.739.262.514.485.75.68 1.276.698 4.696 1.44 9.056 2.266 13.4 1.648 8.67 3.343 17.33 5.05 26.427.317 2.851.316 5.351.966 7.668.612 2.181 1.911 4.17 2.94 6.586.058 1.035.082 1.725-.132 2.672.259 2.156.755 4.056 1.232 6.369.308 2.518.62 4.628.964 6.732 2.383 14.569 10.215 24.928 23.942 31.146 2.117.72 4.12 1.112 6.416 1.512.682.055 1.07.101 1.604.49 2.618 2.214 4.96 2.6 7.323-.303.717-.078 1.128-.114 1.772.077 1.468-.26 2.703-.748 4.225-1.412 3.38-3.022 6.473-5.868 9.907-8.822.804-1.38 1.268-2.65 1.728-3.914-.004.006-.013.019.338-.056 3.257-1.528 3.08-3.643 1.66-6.324.076-.678.123-1.064.51-1.625.988-2.869 1.638-5.562 2.14-7.64 3.914 5.719 7.187 12.203 12.026 17.156 6.79 6.95 15.592 8.8 25.52 7.637 18.992-2.226 32.538-12.253 40.441-28.839 4.168-8.747 5.082-19.06 7.315-28.7.43-1.853.039-4.006 3.05-2.234.381 2.138.746 3.891 1.114 5.93.283.768.563 1.25.855 2.133 4.55 14.468 9.003 28.565 13.725 42.57.64 1.9 2.39 3.645 4.035 4.948 6.305 4.996 13.697 4.919 20.904 3.162 9.901-2.414 18.262-7.648 25.132-15.37 8.823-9.918 12.293-21.172 9.064-34.11-3.064-12.277-12.365-20.707-24.888-20.795-12.797-.09-20.844 2.413-26.402 15.308-.432 1.002-.928 1.977-1.707 3.629-.528-1.224-.886-1.74-.972-2.3-1.977-12.774-4.217-25.518-5.752-38.346-.747-6.243.158-12.672-.371-18.96-.178-2.113-2.092-5.29-3.874-5.839-6.03-1.86-13.714 4.327-13.815 10.714-.136 8.659.003 17.321-.177 26.2-.457 1.326-.713 2.434-1.155 4.345-.885-1.265-1.39-1.713-1.557-2.265-2.515-8.325-8.231-14.241-15.846-17.367-9.644-3.958-19.87-3.489-29.62.444-16.523 6.665-27.4 18.778-33.14 35.528-1.718 5.012-3 10.173-4.482 15.266-1.225-2.761-1.618-5.506-2.137-8.226-2.29-11.993-4.616-23.98-6.93-36.388-.988-3.509-1.977-6.6-2.998-9.87-.034-.178-.05-.542-.026-.989-.647-2.906-1.318-5.365-2.018-7.992-.03-.169-.036-.51-.016-.876-.315-1.233-.652-2.102-1.037-3.288a100 100 0 0 0-1.033-3.603c-.208-.514-.403-.755-.704-1.311-.121-1.09-.194-1.816-.033-2.8-.243-1.437-.72-2.618-1.19-3.806.004-.006.01-.018-.09-.233-.278-.485-.5-.709-.816-1.181-.076-.693-.106-1.09.098-1.75-.245-1.45-.723-2.638-1.188-3.834.014-.007-.009-.025.014-.414-.64-1.832-1.302-3.276-1.997-4.897-.032-.177-.036-.538-.044-.854-.296-.857-.584-1.397-.919-2.237-.087-.703-.126-1.107.034-1.707-.227-.792-.655-1.386-1.127-2.337a87 87 0 0 1-.133-3.573c-.58-.951-1.168-1.555-1.804-2.437-.077-.65-.106-1.024.064-1.607-.234-.832-.667-1.455-1.286-2.39-1.995-5.248-3.482-10.333-5.684-15.086-4.053-8.743-8.552-17.278-12.811-25.927-1.525-3.096-2.892-6.269-4.442-9.64a6 6 0 0 0-.869-.886c.013.014-.027.01-.025-.343-.687-1.147-1.377-1.94-2.256-2.918-.687-.681-1.186-1.177-1.794-1.909-.353-.479-.597-.722-.886-1.13-.045-.166-.079-.508-.059-.894-1.69-2.191-3.399-3.995-5.287-5.918-.401-.307-.572-.534-.69-1.172-.977-1.181-1.952-1.99-2.931-2.794-.004.008-.007.023.028-.379 1.8-1.142 3.56-2.515 5.329-2.526 22.62-.145 45.242-.07 67.864-.135 1.92-.005 3.837-.601 6.212-.928 3.786.06 7.115.126 10.621.529 5.605 1.25 11.006 2.503 16.473 2.966 4.107.348 8.3-.318 12.844-.516 1.426.093 2.463.17 3.63.534 1.414.34 2.698.394 4.307.461.76.048 1.194.08 1.743.431 1.718.424 3.32.53 5.33.64 1.763.061 3.119.12 4.558.418.735.35 1.386.463 2.4.581 1.086.056 1.81.106 2.673.462 2.416.69 4.693 1.073 7.335 1.47 1.094.066 1.822.118 2.707.504 5.972 1.732 11.765 3.231 17.611 4.485 2.738.587 5.577.7 8.672 1.046.703.058 1.104.098 1.634.455 2.775 1.052 5.422 1.788 8.39 2.54 1.114.294 1.905.574 2.767 1.001.07.148.501.263.501.263s.363-.3.677-.285c.732.05 1.15.083 1.7.44 7.801 3.002 15.472 5.68 23.44 8.387.69.09 1.083.152 1.586.544 1.13.68 2.15 1.032 3.534 1.411 2.374.757 4.383 1.485 6.536 2.416.376.453.657.618 1.21.705.22.007.658.062.86.289.771.385 1.342.543 2.126.726.213.024.635.105.742.435 2.755 1.392 5.403 2.452 8.35 3.538.696.09 1.092.155 1.598.533 1.431 1.026 2.752 1.739 4.084 2.47.012.018-.007.057.114.256.335.446.603.59 1.237.65.721.073 1.132.13 1.622.5.778.676 1.477 1.037 2.514 1.433 1.013.14 1.686.245 2.514.54.393.43.679.582 1.344.73 2.367 1.107 4.4 2.134 6.545 3.468 2.096 1.67 4.08 3.03 6.083 4.4.019.007.043.041.231.31 1.393.742 2.598 1.217 4.14 1.78 14.292 10.463 28.773 20.212 42.046 31.396 12.067 10.168 21.666 22.77 29.978 36.346 11.687 19.089 18.482 39.524 19.653 61.934 1.23 23.517-5.766 44.886-16.347 65.652-.396.676-.576 1.183-.953 1.965-2.409 3.778-4.62 7.28-7.02 10.882-.422.275-.574.506-.887 1.037-4.163 5.123-8.083 10.002-12.172 14.986-.387.28-.527.502-.834.994-1.157 1.145-2.071 2.068-3.196 3.157-.4.667-.589 1.168-.93 1.843-.357.402-.566.627-.99.948-.47.276-.682.499-1.16.873-1.774 1.462-3.234 2.818-4.873 4.255-.4.241-.549.452-.825.965a68 68 0 0 1-3.204 2.95c-.405.269-.586.474-.984.92-1.447 1.147-2.635 2.09-4.109 3.086-.694.644-1.101 1.237-1.772 2.05a3459 3459 0 0 1-21.125 15.07c-.413.242-.58.451-.936.922-2.106 1.438-3.96 2.664-6.078 3.908-.69.297-1.114.575-1.835.983-.855.455-1.414.781-2.15 1.182-.399.218-.569.409-1.013.79-1.804.88-3.288 1.602-4.756 2.354-8.36 4.279-16.714 8.565-25.244 12.92-.39.212-.549.403-.928.875a63 63 0 0 1-6.15 2.02c-.64.246-1.031.506-1.72.972-1.212.506-2.126.807-3.203 1.17-.366.2-.504.384-.895.695-.528.13-.74.184-1.106.284-.349.159-.49.318-.894.664-1.17.459-2.028.778-3.236 1.084-1.863.909-3.375 1.83-5.184 2.759-.686.078-1.076.148-1.75.232-.771.283-1.26.553-2.15.827-1.552.17-2.745.191-3.842.527a6024 6024 0 0 0-31.388 9.717c-4.858 1.516-9.695 3.095-14.83 4.677-.669.1-1.051.167-1.69.305-.538.286-.82.502-1.416.686-.944-.007-1.572.018-2.508-.145a636 636 0 0 0-25.68 4.164c-1.796.33-3.469 1.333-5.637 2.034-5.105.368-9.771.73-14.712.885-2.188.218-4.101.64-6.42 1.064-2.03.02-3.655.038-5.59-.145-2.26.258-4.208.717-6.499 1.173-1.243.017-2.143.038-3.398-.147-1.999-.31-3.644-.51-5.29-.509-19.098.023-38.206.466-57.291-.021-11.896-.304-23.756-2.002-35.978-3.22-10.808-1.903-21.446-2.968-31.695-5.568-18.003-4.567-35.963-9.49-53.57-15.378-13.024-4.355-25.573-10.226-38.116-15.901-8.718-3.945-17.066-8.704-25.802-13.338-.553-.52-.883-.802-1.256-1.17-.041-.087-.03-.279-.096-.456-.391-.133-.716-.089-1.287-.07-.572-.081-.897-.137-1.347-.332-.448-.158-.77-.178-1.24-.077-.147.12-.233.489-.233.489m445.26-155.02c-1.718-10.134-3.19-20.32-5.237-30.388-1.486-7.31-7.306-9.84-13.408-5.526-2.57 1.818-4.672 5.766-4.999 8.95-.515 5.025.506 10.238 1.123 15.342 2.148 17.784 4.082 35.604 6.79 53.304.955 6.251 3.54 12.353 6.06 18.231 1.775 4.142 5.924 4.481 9.934 3.554 3.979-.92 5.05-3.814 4.808-7.588-.277-4.31-.428-8.633-.487-12.952-.022-1.638.366-3.281.674-5.797.918 1.38 1.276 1.748 1.44 2.188 4.584 12.355 13.755 19.273 26.378 21.703 10.618 2.044 21.253 1.206 31.576-1.784 3.172-.918 6.36-3.047 8.65-5.466 4.357-4.603 1.948-12.656-4.214-13.457-5.275-.685-10.872-.155-16.153.801-6.175 1.118-12.111.793-18.203-.068.926-1.23 1.884-1.824 2.914-2.241 13.273-5.373 20.877-15.433 23.87-29.158 2.541-11.657-4.336-25.234-14.197-28.44-9.744-3.17-26.901-1.17-34.736 10.853-2.6 3.989-4.35 8.531-6.755 13.014-.186.323-.118.598.178 1.481-.294.794-.588 1.589-1.648 2.295-1.44-2.668-2.88-5.335-4.359-8.85m-49.93 32.43c1.215 6.18 1.97 12.502 3.824 18.483 1.025 3.304 3.384 6.626 6.03 8.91 6.019 5.194 16.31 1.884 16.943-5.243.364-4.104.358-8.39-.415-12.415-1.965-10.234-4.507-20.356-6.716-30.545-1.3-6-2.111-12.127-3.776-18.018-.524-1.855-2.934-4.166-4.777-4.47-4.824-.794-11.881 5.118-11.9 10.015-.04 10.791.468 21.584.788 33.283m14.248-60.962c1.191-5.574-2.635-12.548-8.252-13-3.061-.246-7.508 1.55-9.231 3.938-1.893 2.623-2.861 7.66-1.598 10.453 2.695 5.958 15.356 5.153 19.081-1.39"/><path fill="#bbb124" d="M261.96 265c-3.066-8.284-5.793-16.714-9.287-24.815-4.097-9.498-8.86-18.71-13.334-28.045l-1.807-.284c-1.796 3.047-4.25 5.89-5.272 9.178-4.043 13-7.428 26.205-11.456 39.21-4.02 12.981-8.515 25.815-13.181 39.222-1.15 2.168-1.92 3.827-2.69 5.485 0 0 .04.052-.27.183-1.464 2.038-2.62 3.946-3.777 5.854-2.031 2.539-3.666 5.6-6.176 7.51-5.425 4.127-11.3 7.665-17.734 11.502-3.183.647-5.624 1.234-8.065 1.822-.415.037-.83.074-1.975.131-3.12.417-5.511.814-7.903 1.212-.443-.044-.887-.087-1.951-.424-3.8-.797-6.978-1.3-10.157-1.804a122 122 0 0 1-3.652-1.269c-1.103-.393-1.663-.556-2.224-.719 0 0-.01.03-.238-.246-1.109-.452-1.991-.63-2.873-.806-21.717-13.57-36.17-33.716-49.604-54.785-3.293-5.162-6.6-10.315-9.74-15.788.755-.308 1.35-.299 1.945-.29 7.113 10.432 14.118 20.94 21.365 31.277 8.93 12.737 19.022 24.432 31.79 33.543 19.741 14.086 50.007 11.56 66.29-13.661 9.212-14.27 13.257-30.348 17.7-46.418 4.158-15.044 9.248-29.832 13.982-44.715.45-1.414 1.239-2.73 1.947-4.05 3.214-5.993 4.692-6.115 8.223-.464 11.946 19.122 19.167 40.183 24.75 62.067-1.126-.715-1.824-1.764-2.521-2.813-.03-.38-.06-.76-.144-1.78-.69-2.099-1.325-3.56-1.96-5.02"/><path fill="#e6db2f" d="M430.987 321.983c-2.994-1.387-2.603.766-3.033 2.62-2.233 9.64-3.147 19.952-7.315 28.7-7.903 16.585-21.449 26.612-40.442 28.838-9.927 1.163-18.73-.688-25.52-7.637-4.838-4.953-8.11-11.437-12.026-17.155-.5 2.077-1.15 4.77-2.187 7.154-.567-1.258-.749-2.205-.93-3.152-.019-.577-.038-1.155.353-2.273.193-3.42-.023-6.299-.24-9.178-.124-.756-.25-1.513-.09-2.978-.958-11.16-2.02-21.64-3.509-32.057-1.047-7.333-2.672-14.583-3.79-21.868.417.002.584.002.75.001 2.314 11.99 4.64 23.976 6.93 35.97.519 2.72.912 5.464 2.137 8.225 1.482-5.093 2.764-10.254 4.482-15.266 5.74-16.75 16.617-28.863 33.14-35.528 9.75-3.933 19.976-4.402 29.62-.444 7.615 3.126 13.331 9.042 15.846 17.367.166.552.672 1 1.557 2.265.442-1.911.698-3.02 1.386-4.014 1.249 6.879 2.065 13.644 2.88 20.41m-8.313-17.862c-7.44-15.086-19.45-20.778-35.753-16.947-29.468 6.924-49.404 43.556-38.891 72.05 4.232 11.47 11.764 19.78 25.003 20.473 9.361.49 18.175-1.674 26.186-6.688 21.365-13.37 31.46-42.39 23.455-68.888"/><path fill="#d4ca28" d="M196.94 155.984c-6.777 11.106-12.055 22.896-15.003 35.565-3.013 12.953-5.146 26.114-8.297 39.029-2.239 9.175-5.231 18.2-8.447 27.09-2.333 6.45-4.166 6.685-8.049 1.293-12.53-17.402-24.995-34.854-37.178-52.5-13.11-18.99-27.403-36.777-46.64-50.04 1.687-.395 3.08-.408 4.65-.136 1.442 1.45 2.704 2.616 4.196 4.023 6.261 5.379 12.74 10.085 18.196 15.774 5.234 5.457 9.52 11.849 14.017 17.98a1625 1625 0 0 1 19.879 27.735c7.977 11.37 15.797 22.851 23.76 34.232.63.9 1.845 1.393 2.692 2.006 6.386-10.191 8.33-21.073 10.654-31.944 3.233-15.122 7.107-30.115 11.016-45.082 1.42-5.44 3.73-10.649 5.964-16.066 1.97-3.043 6.182-5.274 3.264-9.602 1.99.188 3.658.415 5.326.643"/><path fill="#dad243" d="M620.986 418.03c2.212-3.503 4.423-7.005 7.034-10.964.588-.955.777-1.454.965-1.953 10.367-20.597 17.363-41.966 16.133-65.483-1.17-22.41-7.966-42.845-19.653-61.934-8.312-13.575-17.91-26.178-29.978-36.346-13.273-11.184-27.754-20.933-42.175-31.713-1.712-.847-2.955-1.29-4.2-1.732 0 0-.023-.034-.176-.314a45 45 0 0 1-.872-2.593c.939.15 2.027.041 2.795.485 31.254 18.082 58.628 40.487 77.463 71.834 28.322 47.136 25.55 99.39-7.333 143.636-4.945 6.653-10.674 12.723-16.442 19.118-.402.056-.62-.142-.604-.442.002-.697-.01-1.094-.023-1.492.914-.923 1.828-1.846 3.142-3.107.6-.517.75-.733.847-.984 3.92-4.878 7.839-9.757 12.165-15 .613-.554.781-.771.912-1.017"/><path fill="#bfb634" d="M80.467 256.71c-.523.315-1.118.306-2.007.303-4.353-5.894-8.41-11.795-12.814-18.2-4.377 5.412-1.878 11.112-2.997 17-.422 6.26-.575 11.764-.728 17.269.028 1.03.055 2.06.059 3.949-1.034 18.283 2.382 35.238 5.595 52.19 2.589 13.663 5.544 27.257 8.336 40.881.042.408.084.817.132 1.97.733 12.135 1.46 23.527 2.141 35.253-.028.785-.01 1.234.01 1.684-.058.418-.115.835-.423 1.77a30 30 0 0 0-.8 2.18s.012.023-.223.136c-.496.33-.686.6-.806.918-.238.192-.445.413-1.038 1.003-1.923 2.23-3.428 4.12-4.933 6.011l-3.058 2.838c-.355 1.43-.28 2.46-.204 3.49-.035.327-.022.653.12 1.574 1.11 1.761 2.14 2.927 3.169 4.092 0 0 .007-.025.102.274.698.897 1.301 1.494 1.904 2.09.846.646 1.69 1.292 2.682 2.51.22 1.07.295 1.568.217 2.2-.152.135-.453.41-.453.41-3.345-3.694-6.66-7.415-10.047-11.07-1.92-2.075-2.288-4.105.112-5.952 11.07-8.517 14.249-19.483 11.663-33.086-3.54-18.616-5.67-37.505-9.404-56.077-5.278-26.254-8.28-52.615-6.636-79.38.451-7.358 1.71-14.666 2.597-21.996l1.913-.455c5.249 7.965 10.498 15.931 15.82 24.22"/><path fill="#c0b624" d="M332.008 292.994c1.368 7.288 2.993 14.538 4.04 21.871 1.488 10.418 2.551 20.897 3.594 31.679-1.81-9.995-3.131-20.372-5.075-30.632-7.347-38.79-16.534-77.074-32.958-113.218-7.747-17.05-17.418-32.873-30.593-46.47 1.052-.202 1.862-.098 2.795.304 1.151 1.356 2.18 2.414 3.207 3.471 0 0 .003-.015.143.259 1.025 1.144 1.91 2.014 2.795 2.884.118.266.289.493.78 1.128 1.905 2.29 3.54 4.133 5.177 5.976 0 0 .034.342.179.75.395.647.645.886.895 1.124.499.496.998.992 1.723 2.002.89 1.324 1.553 2.134 2.216 2.943 0 0 .04.003.136.222.354.441.612.664.87.886 1.44 3.138 2.807 6.311 4.332 9.407 4.259 8.649 8.758 17.184 12.81 25.927 2.203 4.753 3.69 9.838 5.7 15.404.49 1.181.781 1.731 1.072 2.28.03.375.058.748.157 1.733.639 1.223 1.207 1.836 1.776 2.45.032.956.064 1.912.165 3.528.346 1.183.624 1.708.901 2.232l.18 1.823c.345 1.155.63 1.698.913 2.24 0 0 .004.36.064.895.688 2 1.317 3.464 1.946 4.929 0 0 .023.018-.02.386.3 1.49.642 2.612.984 3.735.03.397.059.795.21 1.721.272.844.511 1.055.842 1.163 0 0-.007.012-.041.377.306 1.478.646 2.59.986 3.704.073.727.146 1.453.325 2.771.242.888.445 1.127.717 1.309.304 1.02.609 2.04.946 3.74.366 1.55.7 2.42 1.033 3.29 0 0 .007.342.015.92.677 3.061 1.346 5.545 2.016 8.03 0 0 .015.364.075.946.698 3.682 1.335 6.782 1.972 9.881M339.317 361.644c.398.654.58 1.601.808 3.034 0 .871-.047 1.257-.343 2.218-.763 2.421-1.277 4.268-1.79 6.116 0 0 .008-.013-.23.2-.768 1.41-1.297 2.607-1.827 3.804-3.093 2.845-6.186 5.69-9.939 8.705-1.8.51-2.943.852-4.084 1.193-.412.036-.823.072-1.987.109l-7.02.001c-.39-.046-.778-.092-1.755-.357-2.47-.69-4.352-1.161-6.234-1.633-13.614-5.887-21.446-16.246-23.829-30.815-.344-2.104-.656-4.214-.767-6.988-.253-2.567-.722-4.468-1.191-6.369l-.097-2.836c-1.332-5.265-2.64-9.765-3.947-14.266-1.675-8.665-3.37-17.325-5.018-25.995-.826-4.344-1.568-8.704-2.357-13.627-.176-.86-.4-1.096-.68-1.277-.014-.404-.028-.807-.056-1.85-.02-1.09-.025-1.542.257-2.007.478-.026.669-.039.86-.052 3.158 13.24 6.569 26.427 9.405 39.736 2.844 13.343 4.961 26.839 7.681 40.21 2.705 13.3 16.91 25.39 30.109 26.027 10.87.524 19.703-6.026 22.406-16.652.533-2.096.941-4.223 1.625-6.629"/><path fill="#bfb634" d="M121.871 475.315s-.011.192.146.613c.559.638.96.856 1.363 1.074 8.513 4.396 16.861 9.155 25.579 13.1 12.543 5.675 25.092 11.546 38.117 15.901 17.606 5.888 35.566 10.811 53.57 15.378 10.248 2.6 20.886 3.665 31.835 5.856a75 75 0 0 0 3.557 2.451c-45.118-5.698-88.448-17.627-129.339-37.715-9.838-4.832-19.129-10.778-28.837-16.518-.164-.307-.078-.676.363-.676.651.031.861.063 1.07.095.326.057.651.113 1.5.254.709.119.893.153 1.076.187"/><path fill="#dbd459" d="M273.689 156.23c-.81-.104-1.62-.208-2.733-.308-.185-.76-.156-2.158.067-2.19 1.634-.232 3.308-.24 4.968-.229 28.617.182 57.245-.04 85.847.696 24.79.637 49.356 3.958 73.673 8.906 1.237.252 2.371 1.012 3.453 1.727-2.747-.097-5.394-.388-8.04-.678-.73-.052-1.458-.104-2.826-.406-2.827-.68-5.014-1.11-7.2-1.54-.725-.05-1.448-.1-2.737-.379a23 23 0 0 0-2.28-.597c-1.356-.059-2.712-.118-4.754-.428-2.18-.403-3.673-.556-5.166-.708-.434-.033-.868-.066-1.902-.346-1.788-.336-2.975-.427-4.163-.518-1.037-.076-2.074-.152-3.83-.484-10.2-1.02-19.682-1.784-29.163-2.548-3.33-.066-6.66-.132-10.78-.435-1.597-.387-2.404-.668-3.211-.67-25.014-.032-50.029-.056-75.043.003-1.395.004-2.787.738-4.18 1.132"/><path fill="#dad243" d="M507.878 500.29c.211-.052.423-.105 1.092-.33.64-.309.793-.473.917-.664.914-.3 1.828-.6 3.271-1.14.931-.467 1.333-.697 1.736-.927 1.874-.6 3.749-1.2 6.062-2.126.64-.468.808-.644.942-.852 8.357-4.284 16.712-8.57 25.07-12.85 1.469-.751 2.953-1.472 4.928-2.437.712-.375.886-.559 1.02-.78a13.2 13.2 0 0 1 2.268-1.092c.993-.114 1.393-.114 1.905.023l.33.414c-13.287 7.045-26.315 14.643-39.92 21.009-22.297 10.433-45.762 17.634-70.445 22.812-1.195-.243-1.756-.4-2.317-.557 4.847-1.55 9.684-3.129 14.542-4.645a6024 6024 0 0 1 31.388-9.717c1.097-.336 2.29-.356 4.13-.536 1.176-.286 1.661-.559 2.146-.832.39-.07.78-.14 1.83-.213 2.164-.92 3.667-1.836 5.171-2.752.857-.318 1.714-.637 3.028-1.16.639-.32.788-.468.906-.647"/><path fill="#d1c949" d="M522.903 193.104c-.396-.065-.792-.13-1.73-.457-3.1-1.384-5.658-2.508-8.215-3.63 0 0-.422-.082-.848-.317-.989-.404-1.552-.573-2.115-.742 0 0-.438-.055-.809-.257-.604-.444-.881-.614-1.203-.712-2.009-.729-4.018-1.457-6.54-2.51a45 45 0 0 0-3.496-1.445c-.393-.062-.786-.123-1.622-.527-8.104-3.026-15.765-5.711-23.426-8.397a178 178 0 0 1-1.8-.154c-.547-.053-1.016-.089-1.016-.089a93 93 0 0 1-2.966-1.094 384 384 0 0 0-8.25-2.615c-.401-.04-.802-.081-1.768-.37a1031 1031 0 0 1-6.095-2.855c11.015 2.947 22.367 5.007 32.971 9.035 19.208 7.296 37.979 15.744 56.899 23.788 1.285.546 2.295 1.738 3.28 2.96-.528.368-.903.404-1.279.44a685 685 0 0 1-6.583-3.356c-.723-.52-1.011-.67-1.348-.724a11.6 11.6 0 0 1-2.486-.622c-1.132-.697-1.8-1.086-2.467-1.475-.411-.056-.822-.113-1.686-.36-.668-.415-.922-.576-1.215-.675 0 0 .019-.039-.085-.374-1.437-1.045-2.77-1.756-4.102-2.466"/><path fill="#f8ee40" d="M276.457 529.847c-1.443-.83-2.466-1.503-3.63-2.463 11.735.783 23.595 2.48 35.49 2.785 19.086.487 38.194.044 57.293.021 1.645-.002 3.29.198 4.977.62-.513.92-1.068 1.526-1.623 2.132-20.38.036-40.768.404-61.139-.032-10.332-.22-20.633-1.89-31.368-3.063"/><path fill="#e8e26f" d="M197.31 155.68c-2.038.076-3.706-.151-6.1-.392-1.248.083-1.77.18-2.743.18-34.517-.154-68.58-.216-102.644-.233-.941 0-1.883.496-3.253.716-1.875-.013-3.324.018-4.772.05-1.393.012-2.785.025-4.588.11-1.55-.358-2.692-.786-5.077-1.682 2.168-.459 3.007-.636 4.485-.624 2.267.112 3.895.034 5.522-.044.706-.038 1.412-.076 2.876.068 1.896.104 3.034.025 4.171-.054.357-.056.713-.111 1.796.03 23.558.238 46.39.308 69.22.302 7.324-.003 14.647-.21 21.97-.323.367-.05.735-.101 1.833.036 5.463.107 10.193.027 14.924-.053.86.052 1.721.103 2.884.439.302.284.368.353.368.353-.168.272-.335.544-.872 1.12"/><path fill="#d4ca28" d="M177.782 153.653c-6.932.244-14.255.451-21.578.454-22.832.006-45.663-.064-68.959-.222 7.989-.222 16.442-.41 24.896-.419 21.75-.023 43.5.032 65.641.187"/><path fill="#dad243" d="M563.92 471.179c6.894-4.922 13.787-9.844 21.238-14.984.955-.243 1.352-.265 1.827-.205l.234.251c-9.696 7.062-19.391 14.124-29.443 21.237-.356.051-.577-.225-.682-.588-.106-.364-.106-.815-.106-.815 1.853-1.226 3.707-2.452 5.982-3.995.636-.477.813-.672.95-.901M407.957 527.861c1.73-.693 3.402-1.695 5.198-2.026 8.439-1.551 16.912-2.918 25.639-3.932.213.727.18 1.036.17 1.348-.739.239-1.477.478-2.73.56-1.023.043-1.532.245-2.041.446-.792.222-1.584.443-2.918.548-.902-.189-1.148-.042-1.28.323-.548.152-1.096.304-2.259.283-1.892.15-3.17.473-4.448.796-.828.232-1.656.464-3.029.557-.873-.225-1.107-.103-1.246.227-.157.086-.313.173-.85.081-.64-.033-.902.11-1.164.255-.228.251-.51.351-1.391.077-1.837.128-3.127.479-4.418.83-.787.201-1.574.403-2.778.332-.417-.273-.455-.705-.455-.705"/><path fill="#bfb634" d="M116.314 472.051c.317.724.635 1.448.953 2.477-7.186-4.707-14.373-9.719-21.694-15.067.328-.391.79-.447 1.788-.235.9.438 1.26.607 1.62.777 0 0 .013.003.093.246.284.53.56.698.91.745 0 0 .008.016.18.31 2.134 1.465 4.097 2.636 6.06 3.808.338.241.678.483 1.424 1.1.837.536 1.267.694 1.697.853 0 0 .176.093.373.398a20 20 0 0 0 1.649 1.554c.402.166.805.333 1.516.978 1.349 1.004 2.39 1.53 3.43 2.056"/><path fill="#f0e527" d="M450.622 166.853a83 83 0 0 1 6.175 2.918c-2.53-.098-5.37-.211-8.107-.798-5.846-1.254-11.64-2.753-17.61-4.485 2.49-.044 5.137.247 8.161.514 3.918.576 7.459 1.174 11.381 1.851"/><path fill="#bfb634" d="M87.925 450.367c1.154 1.013 2.308 2.025 3.81 3.5.654.822.96 1.182 1.266 1.541.728.986 1.456 1.973 2.23 3.276a365 365 0 0 1-17.964-15.518c-.016-.417.218-.65.496-.458 1.326.6 2.374 1.007 3.421 1.414 0 0 .261.058.561.228.585.355.87.539 1.154.723 0 0 .057-.03.154.23.344.501.59.741.837.981.72.891 1.442 1.782 2.652 2.97.787.57 1.085.842 1.383 1.113"/><path fill="#dad243" d="M591.907 450.035c.94-.866 1.88-1.732 3.18-2.954.559-.521.721-.716.848-.94 1.46-1.356 2.92-2.712 4.907-4.267.789-.378 1-.605 1.158-.88.213-.221.422-.446 1.03-.853.4-.18.898-.212.898-.212s.217.198.327.296a637 637 0 0 1-16.718 15.896c-.318.12-.474-.047-.53-.433-.067-.79-.077-1.193-.087-1.596 1.188-.944 2.376-1.888 4.013-3.122.688-.454.862-.67.974-.935"/><path fill="#d1c949" d="M369.405 533.03c.114-.694.669-1.3 1.536-2.016 1.213-.13 2.113-.15 3.795-.114 2.644-.303 4.507-.664 6.37-1.026 1.625-.018 3.25-.036 5.652-.006 1.943.317 3.107.586 4.272.854-7.062.799-14.123 1.598-21.625 2.308M407.518 527.869c.439-.008.477.424.484.641-4.745.84-9.497 1.462-14.672 1.736-.348-.658-.29-.97-.249-1.287 4.666-.36 9.332-.722 14.437-1.09"/><path fill="#c0b624" d="M339.485 350.312c.38 2.467.595 5.346.517 8.498-.423-2.514-.552-5.3-.517-8.498"/><path fill="#f6e91f" d="M266.944 279.017c.005.452.01.903-.007 1.694-.99-2.452-1.957-5.243-2.898-8.472.723.61 1.421 1.659 2.427 2.771.5.455.694.847.64 1.664-.218 1.065-.19 1.704-.162 2.343"/><path fill="#d4ca28" d="M194.568 153.639c-4.369.208-9.1.288-14.291.257 4.335-.203 9.132-.295 14.29-.257"/><path fill="#f0e527" d="M542.987 203.464c.264-.344.64-.38 1.292-.46 1.252.511 2.228 1.067 3.495 1.808.53.957.77 1.728 1.143 2.77-1.85-1.088-3.834-2.449-5.93-4.118"/><path fill="#f8ee40" d="M392.806 528.754c.234.521.176.834.11 1.381-.403.379-.816.52-1.558.623-1.493-.304-2.657-.573-4.194-.892a29.3 29.3 0 0 1 5.642-1.112"/><path fill="#d1c949" d="M439.328 523.244c-.353-.305-.321-.614-.227-1.153.67-.257 1.298-.282 2.505-.342.855-.253 1.132-.471 1.41-.689.382-.068.764-.135 1.434-.235.848.125 1.409.282 2.219.585-2.16.706-4.568 1.266-7.341 1.834"/><path fill="#d4ca28" d="M77.81 153.637c-1.297.202-2.925.28-4.855.258 1.307-.194 2.915-.288 4.854-.258"/><path fill="#d1c949" d="M423.612 526.287c.954-.403 2.232-.727 3.85-.967-.948.404-2.237.726-3.85.967M411.523 528.285c.958-.402 2.248-.753 3.894-1.013-.95.416-2.255.74-3.894 1.013"/><path fill="#bfb634" d="M77.134 442.866c-.866-.538-1.615-1.192-2.524-2.104-.16-.258.14-.532.522-.48 1.039.78 1.696 1.506 2.353 2.234z"/><path fill="#d4ca28" d="M84.9 153.655c-.85.199-1.988.278-3.537.25.809-.193 2.03-.282 3.537-.25"/><path fill="#bbb124" d="M267.23 279.004c-.314-.626-.342-1.265-.118-2 .54.39.827.875 1.047 1.654-.26.307-.45.32-.928.346"/><path fill="#d1c949" d="M434.42 524.337c.282-.281.791-.483 1.418-.555-.32.298-.756.466-1.419.555M419.12 527.089q.048-.644.704-.36-.04.573-.704.36M430.266 525.176c-.139-.413.107-.56.592-.382-.024.213-.173.322-.592.382M417.268 527.385c-.007-.202.254-.346.63-.353-.044.228-.203.32-.63.353"/><path fill="#d4ca28" d="M198.276 154.665c-.094-.106-.16-.175-.115-.191.046-.016.352-.026.352-.026s-.143.324-.237.217"/><path fill="#dcd33a" d="M569.053 325.01c2.138-4.29 3.888-8.832 6.488-12.821 7.835-12.022 24.992-14.022 34.736-10.853 9.86 3.206 16.738 16.783 14.196 28.44-2.992 13.725-10.596 23.785-23.87 29.158-1.029.417-1.987 1.01-2.913 2.241 6.092.861 12.028 1.186 18.203.068 5.28-.956 10.878-1.486 16.153-.8 6.162.8 8.571 8.853 4.214 13.456-2.29 2.419-5.478 4.548-8.65 5.466-10.323 2.99-20.958 3.828-31.576 1.784-12.623-2.43-21.794-9.348-26.379-21.703-.163-.44-.521-.808-1.439-2.188-.308 2.516-.696 4.16-.674 5.797.059 4.32.21 8.641.487 12.952.242 3.774-.83 6.668-4.808 7.588-4.01.927-8.159.588-9.934-3.554-2.52-5.878-5.105-11.98-6.06-18.231-2.708-17.7-4.642-35.52-6.79-53.304-.617-5.104-1.638-10.317-1.123-15.342.327-3.184 2.429-7.132 4.999-8.95 6.102-4.315 11.922-1.785 13.408 5.526 2.047 10.068 3.519 20.254 5.242 31.245 1.107 9.715 2.208 18.573 3.31 27.43l.476-.054 1.333-19.294a23.5 23.5 0 0 0 .922-2.964c.043-.752.046-.923.049-1.093m18.791 50.829c13.214 5.945 26.617 4.65 40.026.887 1.857-.521 4.102-1.496 5.054-2.977 1.392-2.167 2.835-5.256 2.267-7.433-.477-1.826-3.769-4.035-5.868-4.093-4.752-.13-9.522 1.226-14.312 1.493-6.422.359-12.897.643-19.293.181-2.792-.202-5.446-2.333-8.163-3.589 1.85-1.454 3.289-1.64 4.723-1.856 17.891-2.7 31.326-19.276 29.784-36.742-.888-10.059-8.048-18.09-17.398-19.086-10.879-1.16-20.058 2.23-26.912 11.018-5.074 6.508-7.473 14.105-8.277 22.17-1.65 16.538 1.907 30.874 18.37 40.027m-41.006-40.271c.802 7.937 1.164 15.95 2.544 23.786 1.11 6.299 3.09 12.52 5.399 18.502 1.162 3.011 4.138 4.593 7.896 3.394 3.647-1.164 3.581-3.873 3.322-6.8-1.132-12.75-1.831-25.559-3.509-38.237-2.025-15.308-4.789-30.523-7.462-45.737-.486-2.766-1.197-6.146-5.585-5.509-4.048.588-6.965 2.452-7.533 6.687-.328 2.443-.288 5.003.028 7.453 1.53 11.86 3.21 23.702 4.9 36.46"/><path fill="#dad23d" d="M431.004 322.368c-.833-7.151-1.65-13.916-2.697-21.013-.252-8.992-.391-17.654-.255-26.313.101-6.387 7.785-12.574 13.815-10.714 1.782.55 3.696 3.726 3.874 5.84.529 6.287-.376 12.716.371 18.959 1.535 12.828 3.775 25.572 5.752 38.346.086.56.444 1.076.972 2.3.78-1.652 1.275-2.627 1.707-3.63 5.558-12.894 13.605-15.397 26.402-15.307 12.523.088 21.824 8.518 24.888 20.796 3.229 12.937-.24 24.191-9.064 34.11-6.87 7.721-15.23 12.955-25.132 15.369-7.207 1.757-14.6 1.834-20.904-3.162-1.644-1.303-3.395-3.048-4.035-4.947-4.722-14.006-9.176-28.103-13.744-42.856-.3-1.167-.57-1.65-.84-2.134-.364-1.753-.729-3.506-1.11-5.644m-1.09-40.763c.59 10.952-.25 22.22 2.091 32.783 3.91 17.642 9.74 34.866 14.979 52.2 3.246 10.743 9.057 14.515 20.179 12.883 15.421-2.264 26.498-11.01 33.927-24.417 4.42-7.979 4.829-16.515 1.887-25.138-3.852-11.29-14.352-17.655-27.165-16.586-11.557.964-17.98 7.205-20.287 19.739-.345 1.878-.612 3.772-.915 5.658l-1.744.327c-1.978-7.032-4.927-13.953-5.736-21.116-1.75-15.513-2.465-31.146-3.479-46.738-.35-5.392-1.932-6.482-6.773-4.116-5.692 2.781-7.668 7.484-6.964 14.521"/><path fill="#dcd33a" d="M513.01 352.106c-.302-11.246-.81-22.039-.77-32.83.019-4.897 7.076-10.809 11.9-10.014 1.843.303 4.253 2.614 4.777 4.47 1.665 5.89 2.475 12.016 3.776 18.017 2.21 10.189 4.751 20.311 6.716 30.545.773 4.025.78 8.311.415 12.415-.634 7.127-10.924 10.437-16.942 5.243-2.647-2.284-5.006-5.606-6.03-8.91-1.855-5.981-2.61-12.303-3.842-18.936m19.256-10.754c-1.806-8.952-3.535-17.922-5.51-26.837-.27-1.225-1.71-3.049-2.697-3.109-3.962-.24-9.323 4.764-9.32 8.79.01 10.802-.387 21.679.753 32.38.792 7.438 3.271 14.875 6.113 21.858 2.024 4.972 6.974 6.55 11.171 5.26 5.226-1.604 5.578-5.957 4.907-10.145-1.47-9.176-3.438-18.272-5.417-28.197"/><path fill="#f6e91f" d="M76.165 369.809c-3.046-13.331-6.001-26.925-8.59-40.588-3.213-16.952-6.629-33.907-5.572-51.804.692 1.058 1.92 2.6 1.892 4.118-.42 22.73 5.12 44.573 9.553 66.598 1.418 7.042 2.005 14.25 2.717 21.676"/><path fill="#f0e527" d="M273.811 156.528c1.27-.692 2.663-1.426 4.058-1.43 25.014-.06 50.029-.035 75.043-.002.807 0 1.614.282 2.755.675-1.584.564-3.502 1.16-5.421 1.165-22.622.064-45.244-.01-67.864.135-1.77.01-3.53 1.384-5.329 2.526-1.063-.655-2.09-1.713-3.242-3.069"/><path fill="#e6db2f" d="M527.157 291.97c-3.606 6.171-16.267 6.976-18.962 1.018-1.263-2.793-.295-7.83 1.598-10.453 1.723-2.389 6.17-4.184 9.231-3.938 5.617.452 9.443 7.426 8.133 13.373m-8.988-10.959c-1.293.208-3.216-.044-3.762.706-1.767 2.43-3.273 5.133-4.335 7.937-.32.846.825 2.872 1.83 3.484 4.402 2.682 10.96 2.03 12.843-.978 1.985-3.172-.047-7.314-5.338-10.862-.133-.09-.312-.11-1.238-.287"/><path fill="#f6e91f" d="M78.23 406.99c-.727-11.391-1.454-22.783-2.14-34.614.6.11 1.614.634 1.65 1.218.674 10.911 1.232 21.83 1.367 33.08-.448.332-.876.316-.876.316M567.7 329.023c-.062 6.475-.507 12.907-.95 19.338l-.477.055c-1.102-8.858-2.203-17.716-3.291-27.007 1.453 2.235 2.894 4.902 4.717 7.614"/><path fill="#f0e527" d="M367.08 156.537c9.304.427 18.785 1.191 28.596 2.194-3.825.454-8.017 1.12-12.124.772-5.467-.463-10.868-1.716-16.473-2.966M473.03 174.433c7.53 2.363 15.191 5.048 22.998 8.046a389 389 0 0 1-22.997-8.046"/><path fill="#f6e91f" d="M62.187 272.755c-.113-5.178.04-10.683.437-16.478.106 5.19-.032 10.67-.437 16.478M275.118 324.192c1.274 4.069 2.582 8.57 3.881 13.49-1.005-1.653-2.304-3.64-2.916-5.822-.65-2.317-.649-4.817-.965-7.668"/><path fill="#f8ee40" d="M77.763 442.708c-.935-.92-1.592-1.647-2.478-2.561-.304-.684-.379-1.181-.414-2.06 2.055 1.531 4.072 3.442 6.2 5.695-.934-.067-1.982-.475-3.308-1.074"/><path fill="#f6e91f" d="M147.063 331.297c3.04.144 6.22.647 9.686 1.412a58 58 0 0 1-9.686-1.412"/><path fill="#f0e527" d="M513.065 189.346c2.45.793 5.008 1.917 7.808 3.277a62 62 0 0 1-7.808-3.277"/><path fill="#f6e91f" d="M332.258 292.997c-.887-3.102-1.524-6.202-2.188-9.705.961 2.687 1.95 5.778 2.938 9.287-.166.42-.333.42-.75.418"/><path fill="#f0e527" d="M458.996 170.474c2.424.47 4.976 1.257 7.799 2.284a52 52 0 0 1-7.799-2.284"/><path fill="#f6e91f" d="M159.35 333.372c2.075-.605 4.466-1.002 7.276-1.372a49.6 49.6 0 0 1-7.276 1.372M285.933 169.86c-1.656-1.457-3.292-3.3-5.018-5.471a42.5 42.5 0 0 1 5.018 5.47M169.179 332.083c2.173-.849 4.614-1.436 7.443-2.026-2.134.76-4.655 1.524-7.443 2.026M313.05 387.367c1.944-.343 4.033-.343 6.569-.302-1.61 2.902-3.952 2.516-6.57.302"/><path fill="#f0e527" d="M421.037 162.514c2.047.124 4.234.554 6.696 1.22-2.003-.147-4.28-.53-6.696-1.22"/><path fill="#e6db2f" d="M338.342 372.937c.163-1.773.677-3.62 1.411-5.75 1.67 2.107 1.846 4.222-1.411 5.75"/><path fill="#f8ee40" d="M106.091 464.762c-1.83-.822-3.793-1.993-5.919-3.457 1.82.842 3.804 1.975 5.92 3.457"/><path fill="#f6e91f" d="M201.246 310.94c.796-1.86 1.953-3.768 3.405-5.833a32.8 32.8 0 0 1-3.405 5.833M305.03 385.365c1.768.14 3.65.612 5.827 1.293a27 27 0 0 1-5.828-1.293"/><path fill="#f0e527" d="M70.343 421.013c1.133-1.876 2.638-3.767 4.44-5.804a41 41 0 0 1-4.44 5.804"/><path fill="#f6e91f" d="M329.984 281.72c-.693-2.038-1.362-4.522-2.01-7.415.692 2.05 1.363 4.51 2.01 7.415"/><path fill="#f8ee40" d="M380.795 529.673c-1.552.563-3.415.924-5.716 1.23 1.509-.513 3.457-.972 5.716-1.23"/><path fill="#f6e91f" d="M278.891 341.118c.707 1.645 1.176 3.546 1.448 5.702-.693-1.646-1.19-3.546-1.448-5.702M205.285 304.88c.418-1.587 1.188-3.246 2.27-5.07-.433 1.556-1.175 3.278-2.27 5.07"/><path fill="#f0e527" d="M406.076 160.413c1.378-.165 2.871-.012 4.643.388-1.323.142-2.925.036-4.643-.388"/><path fill="#dad23d" d="M503.593 502.086c-1.153.928-2.656 1.844-4.523 2.755 1.148-.925 2.66-1.846 4.523-2.755"/><path fill="#f0e527" d="M400.026 159.52c1.058-.197 2.245-.106 3.707.216-1.01.179-2.293.126-3.707-.215"/><path fill="#f8ee40" d="M69.985 432.66q-1.522-1.207-3.094-3.494c1.014.805 2.048 1.969 3.094 3.494"/><path fill="#f6e91f" d="M323.145 254.88c-.575-.86-.918-1.983-1.23-3.466.507.828.985 2.016 1.23 3.466M325.143 261.85c-.574-.856-.914-1.97-1.225-3.44.505.822.982 2.003 1.225 3.44"/><path fill="#f0e527" d="M523.013 193.417c1.222.397 2.555 1.108 3.98 2.135-1.228-.396-2.549-1.109-3.98-2.135"/><path fill="#f6e91f" d="M321.97 250.632c-.651-1.076-1.28-2.54-1.936-4.362.635 1.086 1.297 2.53 1.937 4.362M261.966 265.385c.63 1.076 1.265 2.536 1.902 4.353-.63-1.084-1.263-2.526-1.902-4.353M322.144 387.14c.91-.567 2.051-.908 3.565-1.242-.862.495-2.097.982-3.565 1.243"/><path fill="#e6db2f" d="M336.276 376.907c.189-1.088.718-2.284 1.49-3.7-.222 1.05-.686 2.32-1.49 3.7"/><path fill="#f0e527" d="M549.301 208.173c1.056.174 2.3.617 3.673 1.376-1.075-.158-2.28-.633-3.673-1.376"/><path fill="#f6e91f" d="M279.955 162.77c-.884-.498-1.77-1.368-2.79-2.52.839.53 1.814 1.339 2.79 2.52"/><path fill="#f0e527" d="M498.057 183.364c.884.043 1.879.416 3.021 1.086-.872-.054-1.891-.405-3.021-1.086"/><path fill="#f6e91f" d="M290.928 176.711c-.665-.455-1.328-1.265-2.03-2.404.653.464 1.343 1.257 2.03 2.404"/><path fill="#f0e527" d="M66.795 426.935c-.162-.61-.237-1.64-.039-2.814.224.701.174 1.548.039 2.814"/><path fill="#f8ee40" d="M116.15 471.727c-.877-.202-1.918-.728-3.091-1.601.887.194 1.906.735 3.09 1.601"/><path fill="#dad23d" d="M586.634 454.143c.296.352.306.756.294 1.461-.418.326-.815.348-1.507.37.112-.594.52-1.187 1.213-1.831"/><path fill="#f6e91f" d="M319.045 240.937c-.477-.327-.755-.852-1.058-1.678.403.292.83.886 1.058 1.678M317.785 235.027c-.575-.267-1.143-.88-1.734-1.826.566.27 1.153.875 1.734 1.826"/><path fill="#f0e527" d="M530.07 197.294c.588.074 1.256.463 2.05 1.124-.573-.088-1.272-.449-2.05-1.124"/><path fill="#f6e91f" d="M316.045 230.983c-.49-.34-.781-.89-1.086-1.76.419.305.852.928 1.086 1.76"/><path fill="#f0e527" d="M415.964 161.471c.488-.116 1.06.006 1.834.351-.448.112-1.1 0-1.834-.35"/><path fill="#f6e91f" d="M141.082 329.23c.528-.118 1.088.045 1.86.42-.468.095-1.148-.023-1.86-.42M138.18 328.139c.64-.065 1.522.112 2.624.552-.648.072-1.515-.12-2.624-.552"/><path fill="#f8ee40" d="M71.97 435.028c-.569-.24-1.172-.836-1.883-1.73.544.26 1.196.816 1.882 1.73"/><path fill="#f6e91f" d="M327.95 272.852q-.53-.757-1.004-2.607.53.758 1.004 2.607"/><path fill="#f0e527" d="M510.196 188.185c.362-.058.925.11 1.7.49-.357.053-.928-.105-1.7-.49"/><path fill="#dad23d" d="M496.66 505.077q-.302.39-1.46.814.301-.39 1.46-.814"/><path fill="#f6e91f" d="M319.93 244.88q-.413-.339-.858-1.623.413.34.858 1.624"/><path fill="#dad23d" d="M514.647 497.216c-.156.243-.558.473-1.192.735.16-.228.553-.488 1.192-.735M556.723 476.093c.265-.018.265.433.26.66-.406.225-.806.225-1.503.21.129-.295.554-.573 1.243-.87"/><path fill="#f0e527" d="M77.207 412.773c-.053-.368.13-.922.534-1.679.048.362-.125.927-.534 1.679"/><path fill="#f8ee40" d="M111.222 468.73c-.339-.13-.822-.546-1.406-1.285.354.117.807.557 1.406 1.284"/><path fill="#f0e527" d="M78.184 407.325c.047-.335.475-.319.69-.308.042.536-.131 1.06-.493 1.788-.206-.246-.225-.695-.197-1.48"/><path fill="#dad23d" d="M628.77 405.282c.027.33-.162.829-.553 1.509-.022-.326.158-.833.554-1.509"/><path fill="#e6db2f" d="M432.118 328.298c.266.197.535.68.824 1.449-.261-.198-.541-.68-.824-1.45"/><path fill="#dad23d" d="M603.943 439.63c-.015.299-.513.332-.763.337-.06-.496.13-.997.53-1.664.222.232.235.63.233 1.326"/><path fill="#f8ee40" d="M82.75 444.86c-.136.029-.42-.155-.874-.537.129-.023.427.15.874.537"/><path fill="#dad23d" d="M509.724 499.358c.04.129-.114.293-.437.525-.067-.14.071-.325.437-.525M507.723 500.338c.037.132-.112.28-.437.46-.054-.142.088-.301.437-.46M601.79 441.094q.077.264-.634.674-.074-.261.634-.674"/><path fill="#f0e527" d="M535.098 199.267q.275-.205.86.452-.271.192-.86-.452"/><path fill="#dad243" d="M442.76 521.13c-.022.148-.299.366-.839.65q.029-.221.838-.65"/><path fill="#f6e91f" d="M267.122 283.089q.283-.07.67.706-.279.065-.67-.706"/><path fill="#dad23d" d="M521.725 494.321c.04.138-.129.314-.489.55-.06-.146.098-.337.489-.55"/><path fill="#f6e91f" d="M286.878 171.884c-.141-.002-.391-.24-.741-.722.144 0 .388.243.741.722"/><path fill="#dad23d" d="M607.739 434.152c.073.145-.076.36-.434.657-.093-.155.047-.377.434-.657M620.798 418.129c.057.146-.11.363-.48.671-.094-.165.058-.396.48-.671"/><path fill="#f6e91f" d="M325.88 265.961c-.2.044-.404-.195-.598-.72.195-.035.39.206.598.72M323.862 257.811c-.229.107-.468-.104-.693-.652.193-.057.416.167.693.652"/><path fill="#f0e527" d="M76.162 413.897q-.151-.306.574-.799.166.32-.574.799"/><path fill="#dad23d" d="M595.756 446.222c.052.143-.11.338-.466.608-.083-.156.065-.367.466-.608"/><path fill="#f8ee40" d="M92.904 455.07c-.209-.021-.515-.38-.883-1.096.22.017.502.388.883 1.097"/><path fill="#f6e91f" d="M568.92 325.107c.13.073.127.244.097.669-.349.025-.417-.25-.097-.67"/><path fill="#f0e527" d="M470.153 174.015c-.07-.148.399-.112.632-.075s-.13.338-.13.338-.432-.115-.502-.263"/><path fill="#f6e91f" d="M291.822 177.94q-.222.016-.773-.668.223-.016.773.668"/><path fill="#f8ee40" d="M98.813 459.744c-.192.09-.553-.08-1.102-.487.186-.083.56.072 1.102.487M99.891 460.769c-.256.178-.533.01-.816-.514.257-.165.524.01.816.514"/><path fill="#f0e527" d="M508.127 187.19c.178-.103.455.067.839.504q-.274.175-.839-.503"/><path fill="#f8ee40" d="M109.094 466.833c-.18.073-.609-.085-1.263-.52.187-.087.6.1 1.263.52M87.791 450.082c-.164.014-.462-.258-.954-.766.145.003.483.241.954.766"/><path fill="#dad23d" d="M591.727 450.138c.068.163-.106.378-.533.63-.053-.157.128-.362.533-.63M563.737 471.263c.046.145-.13.34-.514.605-.065-.154.101-.363.514-.605"/><path fill="#f8ee40" d="M119.171 474.736c-.085.106-.295.074-.8-.077.03-.1.352-.081.8.077M121.805 475.138c-.117.143-.301.109-.763.015.047-.104.372-.148.763-.015"/><path fill="#f0e527" d="M527.211 196.143c.172-.1.426.061.783.46-.18.13-.448-.014-.783-.46"/><path fill="#f8ee40" d="M123.157 476.764c-.18.02-.581-.198-1.099-.75.216-.052.546.23 1.1.75M83.79 446.041c-.146.003-.393-.237-.75-.708.142 0 .395.233.75.708"/><path fill="#dad23d" d="M552.738 478.258c.044.147-.13.33-.516.56-.053-.151.117-.342.516-.56"/><path fill="#0e0b04" d="M422.805 304.491c7.872 26.127-2.222 55.149-23.587 68.518-8.011 5.014-16.825 7.178-26.186 6.688-13.239-.693-20.771-9.004-25.003-20.474-10.513-28.493 9.423-65.125 38.89-72.05 16.304-3.83 28.313 1.862 35.886 17.318m-44.16 10.624c-4.62 2.771-10.26 4.646-13.643 8.503-6.777 7.726-6.71 26.458-.975 35.032 2.653 3.967 6.328 6.236 11.272 6.12 7.039-.165 13.453-2.275 18.943-6.638 15.4-12.238 19.418-30.91 15.193-48.506-.689-2.868-3.213-6.579-5.747-7.474-7.144-2.524-14.53-1.92-21.477 1.6 2.778 8.06 2.723 8.255-3.566 11.363"/><path fill="#feed03" d="M82.998 155.996c.942-.265 1.883-.761 2.825-.76 34.064.016 68.127.078 102.663.611.16 3.385-.152 6.292-.465 9.2-1.904 5.313-4.214 10.522-5.635 15.962-3.91 14.967-7.783 29.96-11.016 45.082-2.324 10.871-4.268 21.753-10.654 31.944-.847-.613-2.062-1.105-2.692-2.006-7.963-11.38-15.783-22.862-23.76-34.232a1625 1625 0 0 0-19.879-27.734c-4.497-6.132-8.783-12.524-14.017-17.981-5.455-5.689-11.935-10.395-18.04-16.095.175-1.707.422-2.849.67-3.99"/><path fill="#f7e80f" d="M188.35 164.943c-.016-2.804.296-5.711.59-8.999.5-.476 1.022-.573 1.947-.616 3.645 4.341-.566 6.572-2.537 9.615M82.57 155.951c.18 1.187-.067 2.33-.472 3.793-1.418-.843-2.68-2.009-4.121-3.459 1.27-.316 2.718-.347 4.593-.334"/><path fill="#0d0b04" d="M587.504 375.676c-16.122-8.99-19.679-23.326-18.03-39.865.805-8.064 3.204-15.661 8.278-22.169 6.854-8.789 16.033-12.177 26.912-11.018 9.35.996 16.51 9.027 17.398 19.086 1.542 17.466-11.893 34.042-29.784 36.742-1.434.217-2.873.402-4.723 1.856 2.717 1.256 5.37 3.387 8.163 3.59 6.396.461 12.871.177 19.293-.182 4.79-.267 9.56-1.624 14.312-1.493 2.1.058 5.391 2.267 5.868 4.093.568 2.177-.875 5.266-2.267 7.433-.952 1.48-3.197 2.456-5.054 2.977-13.409 3.762-26.812 5.058-40.366-1.05m2.795-52.84c-1.276 4.682-2.86 9.31-3.708 14.068-.469 2.634 1.433 4.246 4.332 4.178 6.418-.151 11.61-2.634 15.027-8.178 2.615-4.244 1.92-12.096-1.071-14.444-2.92-2.292-8.42-1.282-12.76 2.37-.502.423-.906.96-1.82 2.005"/><path fill="#0d0b03" d="M546.807 335.112c-1.658-12.303-3.337-24.144-4.868-36.005-.316-2.45-.356-5.01-.028-7.453.568-4.235 3.485-6.099 7.533-6.687 4.388-.637 5.1 2.743 5.585 5.509 2.673 15.214 5.437 30.429 7.462 45.737 1.678 12.678 2.377 25.486 3.509 38.237.26 2.927.325 5.636-3.322 6.8-3.758 1.199-6.734-.383-7.896-3.394-2.308-5.981-4.289-12.203-5.399-18.502-1.38-7.835-1.742-15.85-2.576-24.242"/><path fill="#0d0b04" d="M429.923 281.125c-.713-6.557 1.263-11.26 6.955-14.041 4.84-2.366 6.422-1.276 6.773 4.116 1.014 15.592 1.728 31.225 3.48 46.738.808 7.163 3.757 14.084 5.735 21.116q.872-.164 1.744-.327c.303-1.886.57-3.78.915-5.658 2.306-12.534 8.73-18.775 20.287-19.739 12.813-1.069 23.313 5.297 27.165 16.586 2.942 8.623 2.534 17.159-1.887 25.138-7.429 13.408-18.506 22.153-33.927 24.417-11.122 1.632-16.933-2.14-20.18-12.882-5.237-17.335-11.069-34.56-14.978-52.2-2.34-10.564-1.501-21.832-2.082-33.264m50.119 47.884c-9.354 6.041-15.204 21.16-12.592 33.209 9.874-.918 16.601-6.998 22.318-14.159 5.572-6.98.178-18.085-9.726-19.05"/><path fill="#0d0b03" d="M532.373 341.75c1.872 9.527 3.84 18.623 5.31 27.799.671 4.188.32 8.54-4.907 10.146-4.197 1.289-9.147-.289-11.17-5.261-2.843-6.983-5.322-14.42-6.114-21.859-1.14-10.7-.744-21.577-.752-32.378-.004-4.027 5.357-9.03 9.319-8.79.988.06 2.426 1.883 2.698 3.108 1.974 8.915 3.703 17.885 5.616 27.235"/><path fill="#181504" d="M518.553 281.073c.542.114.72.136.854.225 5.291 3.548 7.323 7.69 5.338 10.862-1.882 3.008-8.441 3.66-12.843.978-1.005-.612-2.15-2.638-1.83-3.484 1.062-2.804 2.568-5.508 4.335-7.937.546-.75 2.469-.498 4.146-.644"/><path fill="#f7e80f" d="M379.014 315.012c5.92-3.005 5.975-3.2 3.197-11.26 6.948-3.52 14.333-4.124 21.477-1.6 2.534.895 5.058 4.606 5.747 7.474 4.225 17.595.207 36.268-15.193 48.506-5.49 4.363-11.904 6.473-18.943 6.638-4.944.116-8.619-2.153-11.272-6.12-5.734-8.574-5.802-27.306.975-35.032 3.383-3.857 9.024-5.732 14.012-8.606"/><path fill="#dad23d" d="M590.531 322.555c.682-.764 1.086-1.302 1.587-1.724 4.341-3.653 9.842-4.663 12.76-2.371 2.992 2.348 3.687 10.2 1.072 14.444-3.416 5.544-8.609 8.027-15.027 8.178-2.9.068-4.801-1.544-4.332-4.178.848-4.759 2.432-9.386 3.94-14.35m-1.354 14.309c1.025.672 2.024 1.877 3.079 1.929 5.76.279 12.854-6.528 12.694-12.327-.054-1.944-.794-4.983-2.066-5.52-1.91-.807-4.897-.506-6.844.477-5.885 2.972-7.696 8.293-6.863 15.44"/><path fill="#efe31c" d="M480.414 328.888c9.532 1.086 14.926 12.191 9.354 19.171-5.717 7.16-12.444 13.24-22.318 14.159-2.612-12.048 3.238-27.168 12.964-33.33"/><path fill="#f7e80f" d="M589.092 336.452c-.748-6.737 1.063-12.058 6.948-15.03 1.947-.983 4.933-1.284 6.844-.477 1.272.537 2.012 3.576 2.066 5.52.16 5.799-6.933 12.606-12.694 12.327-1.055-.052-2.054-1.257-3.164-2.34"/></svg>